<svg id="Layer_1" data-name="Layer 1" xmlns="http://www.w3.org/2000/svg" viewBox="0 0 172.82 76.56"><defs><style>.cls-1{fill:#979797;}.cls-2{fill:none;}.cls-3{fill:#1f3864;}</style></defs><title>LOGO</title><path class="cls-1" d="M79.38,79.68H41.15c1.73-1.65,2.5-2.38,4.47-4.19H72.8A25.46,25.46,0,0,0,79.38,79.68Z" transform="translate(-17.76 -11.58)"/><path class="cls-1" d="M190.54,75.49H104.6c-2.27,2.09-4.06,2.84-6.63,4.19h92.57" transform="translate(-17.76 -11.58)"/><line class="cls-2" x1="172.77" y1="63.91" x2="172.77" y2="68.1"/><path id="S" class="cls-3" d="M171.74,69.93A1.82,1.82,0,0,1,170,68.06v-1.8h-3.75v1.8a5.62,5.62,0,0,0,5.63,5.62H185a5.61,5.61,0,0,0,5.61-5.62V63.4A5.61,5.61,0,0,0,185,57.78H171.85A1.88,1.88,0,0,1,170,55.91V51.23a1.87,1.87,0,0,1,1.88-1.87H185a1.87,1.87,0,0,1,1.88,1.87V53h3.73V51.23A5.61,5.61,0,0,0,185,45.62H171.85a5.62,5.62,0,0,0-5.63,5.61v4.68a5.63,5.63,0,0,0,5.63,5.62H185a1.87,1.87,0,0,1,1.88,1.87v4.66A1.88,1.88,0,0,1,185,69.94H171.85" transform="translate(-17.76 -11.58)"/><path id="C" class="cls-3" d="M158.72,69.94a1.88,1.88,0,0,0,1.88-1.88v-1.8h3.75v1.8a5.62,5.62,0,0,1-5.63,5.62H145.59A5.61,5.61,0,0,1,140,68.06V51.23a5.61,5.61,0,0,1,5.62-5.61h13.13a5.62,5.62,0,0,1,5.63,5.61V53H160.6V51.23a1.87,1.87,0,0,0-1.88-1.87H145.59a1.87,1.87,0,0,0-1.87,1.87V68.06a1.88,1.88,0,0,0,1.87,1.88" transform="translate(-17.76 -11.58)"/><path id="E" class="cls-3" d="M134.34,51.14a1.83,1.83,0,0,0-1.87-1.78H119.34a1.87,1.87,0,0,0-1.87,1.87v6.55h13.12v3.75H117.47v6.53a1.88,1.88,0,0,0,1.87,1.88h13.13a1.88,1.88,0,0,0,1.87-1.88v-1.8h3.75v1.8a5.61,5.61,0,0,1-5.62,5.62H119.34a5.61,5.61,0,0,1-5.62-5.62V51.23a5.61,5.61,0,0,1,5.62-5.61h13.13a5.61,5.61,0,0,1,5.62,5.61V53h-3.75v-1.9Z" transform="translate(-17.76 -11.58)"/><path class="cls-1" d="M88.07,79.67a22,22,0,0,0,22.64-21.86H97.93l0,4.25h8A17.66,17.66,0,0,1,71.27,60l-.08-.68a17.66,17.66,0,0,1,34.5-6.59h4.43A21.92,21.92,0,1,0,88.07,79.67" transform="translate(-17.76 -11.58)"/><line class="cls-2" x1="69.9" y1="0.01" x2="63.41"/><path class="cls-3" d="M81.17,11.58C64.6,41.48,52,59.65,17.76,86.94h12A201.16,201.16,0,0,0,55.38,62.38H78.51V57.83H59.42c10.2-13,11.88-15.42,21.43-31.72V71.78A15.45,15.45,0,0,0,88,73.86l-.35-62.27" transform="translate(-17.76 -11.58)"/><path class="cls-3" d="M43.76,84.59H42V86.2H44v.48H41.45V82.23h2.41v.48H42v1.41h1.73Z" transform="translate(-17.76 -11.58)"/><path class="cls-3" d="M44.68,84.35c0-.33,0-.6,0-.87h.52l0,.53h0a1.19,1.19,0,0,1,1.06-.6c.44,0,1.13.26,1.13,1.36v1.91h-.58V84.84c0-.52-.19-1-.74-1a.83.83,0,0,0-.78.6.73.73,0,0,0,0,.27v1.92h-.58Z" transform="translate(-17.76 -11.58)"/><path class="cls-3" d="M51.1,83.48c0,.23,0,.49,0,.88v1.86a1.85,1.85,0,0,1-.46,1.46,1.69,1.69,0,0,1-1.16.38,2.08,2.08,0,0,1-1.06-.26l.14-.45a1.82,1.82,0,0,0,.94.25c.6,0,1-.31,1-1.11v-.36h0a1.14,1.14,0,0,1-1,.54,1.43,1.43,0,0,1-1.36-1.56,1.53,1.53,0,0,1,1.44-1.7,1.07,1.07,0,0,1,1,.55h0l0-.48Zm-.6,1.26a.71.71,0,0,0,0-.26.83.83,0,0,0-.81-.62c-.56,0-.95.47-.95,1.21s.32,1.15.94,1.15a.85.85,0,0,0,.81-.59,1.12,1.12,0,0,0,0-.31Z" transform="translate(-17.76 -11.58)"/><path class="cls-3" d="M52.64,82.58a.36.36,0,1,1-.72,0,.35.35,0,0,1,.36-.36A.35.35,0,0,1,52.64,82.58ZM52,86.68v-3.2h.58v3.2Z" transform="translate(-17.76 -11.58)"/><path class="cls-3" d="M53.54,84.35c0-.33,0-.6,0-.87H54l0,.53h0a1.19,1.19,0,0,1,1.06-.6c.44,0,1.13.26,1.13,1.36v1.91h-.58V84.84c0-.52-.2-1-.74-1a.82.82,0,0,0-.78.6.73.73,0,0,0,0,.27v1.92h-.58Z" transform="translate(-17.76 -11.58)"/><path class="cls-3" d="M57.52,85.19a1,1,0,0,0,1.1,1.11,2.1,2.1,0,0,0,.88-.17l.1.42a2.58,2.58,0,0,1-1.06.2A1.48,1.48,0,0,1,57,85.13a1.55,1.55,0,0,1,1.5-1.72,1.36,1.36,0,0,1,1.32,1.51,1.76,1.76,0,0,1,0,.27Zm1.71-.42a.84.84,0,0,0-.81-1,1,1,0,0,0-.89,1Z" transform="translate(-17.76 -11.58)"/><path class="cls-3" d="M60.83,85.19a1,1,0,0,0,1.1,1.11,2.13,2.13,0,0,0,.88-.17l.1.42a2.58,2.58,0,0,1-1.06.2,1.49,1.49,0,0,1-1.58-1.62,1.55,1.55,0,0,1,1.5-1.72,1.35,1.35,0,0,1,1.32,1.51,1.76,1.76,0,0,1,0,.27Zm1.7-.42a.83.83,0,0,0-.8-1,1,1,0,0,0-.89,1Z" transform="translate(-17.76 -11.58)"/><path class="cls-3" d="M63.81,84.48c0-.38,0-.7,0-1h.5l0,.63h0a1,1,0,0,1,.89-.7l.16,0V84a.62.62,0,0,0-.2,0,.82.82,0,0,0-.78.74,2.28,2.28,0,0,0,0,.27v1.71h-.58Z" transform="translate(-17.76 -11.58)"/><path class="cls-3" d="M66.64,82.58a.34.34,0,0,1-.37.36.35.35,0,0,1-.35-.36.36.36,0,0,1,.37-.36A.34.34,0,0,1,66.64,82.58ZM66,86.68v-3.2h.58v3.2Z" transform="translate(-17.76 -11.58)"/><path class="cls-3" d="M67.54,84.35c0-.33,0-.6,0-.87H68l0,.53h0a1.16,1.16,0,0,1,1-.6c.45,0,1.13.26,1.13,1.36v1.91h-.58V84.84c0-.52-.19-1-.74-1a.83.83,0,0,0-.78.6,1,1,0,0,0,0,.27v1.92h-.58Z" transform="translate(-17.76 -11.58)"/><path class="cls-3" d="M74,83.48c0,.23,0,.49,0,.88v1.86a1.85,1.85,0,0,1-.45,1.46,1.7,1.7,0,0,1-1.17.38,2.08,2.08,0,0,1-1.06-.26l.14-.45a1.88,1.88,0,0,0,.94.25c.6,0,1-.31,1-1.11v-.36h0a1.14,1.14,0,0,1-1,.54A1.43,1.43,0,0,1,71,85.11a1.53,1.53,0,0,1,1.44-1.7,1.07,1.07,0,0,1,1,.55h0l0-.48Zm-.6,1.26a.71.71,0,0,0,0-.26.83.83,0,0,0-.81-.62c-.55,0-1,.47-1,1.21s.32,1.15.94,1.15a.84.84,0,0,0,.81-.59,1.12,1.12,0,0,0,0-.31Z" transform="translate(-17.76 -11.58)"/><path class="cls-3" d="M78.06,86.68l0-.4h0a1.21,1.21,0,0,1-1,.47.91.91,0,0,1-1-.92c0-.77.69-1.19,1.92-1.19v-.06a.65.65,0,0,0-.72-.74,1.59,1.59,0,0,0-.84.24l-.13-.39a2,2,0,0,1,1-.28c1,0,1.22.67,1.22,1.31v1.19a4.53,4.53,0,0,0,0,.77ZM78,85.05c-.64,0-1.36.1-1.36.72a.51.51,0,0,0,.55.55.78.78,0,0,0,.77-.53.65.65,0,0,0,0-.19Z" transform="translate(-17.76 -11.58)"/><path class="cls-3" d="M79.47,84.35c0-.33,0-.6,0-.87H80L80,84h0a1.19,1.19,0,0,1,1.06-.6c.44,0,1.12.26,1.12,1.36v1.91h-.58V84.84c0-.52-.19-1-.74-1a.83.83,0,0,0-.78.6,1,1,0,0,0,0,.27v1.92h-.58Z" transform="translate(-17.76 -11.58)"/><path class="cls-3" d="M85.9,82v3.86c0,.29,0,.61,0,.83H85.4l0-.56h0a1.18,1.18,0,0,1-1.09.63,1.46,1.46,0,0,1-1.37-1.62,1.54,1.54,0,0,1,1.44-1.72,1,1,0,0,1,1,.49h0V82Zm-.58,2.79a1,1,0,0,0,0-.24.86.86,0,0,0-.84-.68c-.6,0-1,.53-1,1.24s.32,1.18,1,1.18a.88.88,0,0,0,.85-.69,1,1,0,0,0,0-.25Z" transform="translate(-17.76 -11.58)"/><path class="cls-3" d="M88.85,82.72H87.5v-.49h3.3v.49H89.43v4h-.58Z" transform="translate(-17.76 -11.58)"/><path class="cls-3" d="M91.12,85.19a1,1,0,0,0,1.1,1.11,2.1,2.1,0,0,0,.88-.17l.1.42a2.58,2.58,0,0,1-1.06.2,1.48,1.48,0,0,1-1.57-1.62,1.55,1.55,0,0,1,1.5-1.72,1.36,1.36,0,0,1,1.32,1.51,1.76,1.76,0,0,1,0,.27Zm1.71-.42a.84.84,0,0,0-.81-1,1,1,0,0,0-.89,1Z" transform="translate(-17.76 -11.58)"/><path class="cls-3" d="M96.38,86.56a2.06,2.06,0,0,1-.91.19,1.53,1.53,0,0,1-1.6-1.64,1.62,1.62,0,0,1,1.72-1.69,2,2,0,0,1,.81.16l-.13.45a1.37,1.37,0,0,0-.68-.15,1.11,1.11,0,0,0-1.13,1.21,1.09,1.09,0,0,0,1.11,1.19,1.6,1.6,0,0,0,.72-.16Z" transform="translate(-17.76 -11.58)"/><path class="cls-3" d="M97.06,82h.58v2h0a1.08,1.08,0,0,1,.41-.41,1.3,1.3,0,0,1,.6-.16c.43,0,1.11.26,1.11,1.37v1.9H99.2V84.84c0-.51-.19-1-.74-1a.86.86,0,0,0-.78.58.79.79,0,0,0,0,.28v1.93h-.58Z" transform="translate(-17.76 -11.58)"/><path class="cls-3" d="M100.72,84.35c0-.33,0-.6,0-.87h.51l0,.53h0a1.19,1.19,0,0,1,1.06-.6c.44,0,1.13.26,1.13,1.36v1.91h-.58V84.84c0-.52-.2-1-.74-1a.82.82,0,0,0-.78.6.73.73,0,0,0,0,.27v1.92h-.59Z" transform="translate(-17.76 -11.58)"/><path class="cls-3" d="M107.28,85.05a1.56,1.56,0,0,1-1.59,1.7,1.51,1.51,0,0,1-1.53-1.64,1.56,1.56,0,0,1,1.58-1.7A1.51,1.51,0,0,1,107.28,85.05Zm-2.54,0c0,.7.41,1.23,1,1.23s1-.53,1-1.25c0-.54-.27-1.22-1-1.22S104.74,84.48,104.74,85.09Z" transform="translate(-17.76 -11.58)"/><path class="cls-3" d="M108,82h.58v4.69H108Z" transform="translate(-17.76 -11.58)"/><path class="cls-3" d="M112.46,85.05a1.56,1.56,0,0,1-1.59,1.7,1.51,1.51,0,0,1-1.53-1.64,1.56,1.56,0,0,1,1.58-1.7A1.51,1.51,0,0,1,112.46,85.05Zm-2.54,0c0,.7.41,1.23,1,1.23s1-.53,1-1.25c0-.54-.27-1.22-1-1.22S109.92,84.48,109.92,85.09Z" transform="translate(-17.76 -11.58)"/><path class="cls-3" d="M116,83.48c0,.23,0,.49,0,.88v1.86a1.81,1.81,0,0,1-.46,1.46,1.68,1.68,0,0,1-1.16.38,2.08,2.08,0,0,1-1.06-.26l.14-.45a1.82,1.82,0,0,0,.94.25c.6,0,1-.31,1-1.11v-.36h0a1.14,1.14,0,0,1-1,.54A1.43,1.43,0,0,1,113,85.11a1.53,1.53,0,0,1,1.44-1.7,1.07,1.07,0,0,1,1,.55h0l0-.48Zm-.6,1.26a.71.71,0,0,0,0-.26.83.83,0,0,0-.81-.62c-.55,0-1,.47-1,1.21s.32,1.15.94,1.15a.85.85,0,0,0,.81-.59,1.12,1.12,0,0,0,0-.31Z" transform="translate(-17.76 -11.58)"/><path class="cls-3" d="M117.49,82.58a.36.36,0,1,1-.72,0,.35.35,0,0,1,.36-.36A.35.35,0,0,1,117.49,82.58Zm-.65,4.1v-3.2h.58v3.2Z" transform="translate(-17.76 -11.58)"/><path class="cls-3" d="M120.67,86.56a2.15,2.15,0,0,1-.92.19,1.53,1.53,0,0,1-1.6-1.64,1.62,1.62,0,0,1,1.72-1.69,2,2,0,0,1,.81.16l-.13.45a1.37,1.37,0,0,0-.68-.15,1.11,1.11,0,0,0-1.13,1.21,1.09,1.09,0,0,0,1.11,1.19,1.6,1.6,0,0,0,.72-.16Z" transform="translate(-17.76 -11.58)"/><path class="cls-3" d="M123.11,86.68l0-.4h0a1.19,1.19,0,0,1-1,.47.91.91,0,0,1-1-.92c0-.77.69-1.19,1.92-1.19v-.06a.65.65,0,0,0-.72-.74,1.53,1.53,0,0,0-.83.24l-.14-.39a2,2,0,0,1,1.05-.28c1,0,1.22.67,1.22,1.31v1.19a4.53,4.53,0,0,0,0,.77ZM123,85.05c-.64,0-1.36.1-1.36.72a.51.51,0,0,0,.55.55.78.78,0,0,0,.77-.53.65.65,0,0,0,0-.19Z" transform="translate(-17.76 -11.58)"/><path class="cls-3" d="M124.52,82h.59v4.69h-.59Z" transform="translate(-17.76 -11.58)"/><path class="cls-3" d="M130.61,86.53a2.73,2.73,0,0,1-1.17.22,2.08,2.08,0,0,1-2.2-2.26,2.22,2.22,0,0,1,2.32-2.34,2.36,2.36,0,0,1,1.06.2l-.14.47a2.2,2.2,0,0,0-.9-.18,1.65,1.65,0,0,0-1.74,1.83,1.62,1.62,0,0,0,1.71,1.79,2.31,2.31,0,0,0,.94-.18Z" transform="translate(-17.76 -11.58)"/><path class="cls-3" d="M134.13,85.05a1.56,1.56,0,0,1-1.59,1.7A1.51,1.51,0,0,1,131,85.11a1.56,1.56,0,0,1,1.58-1.7A1.51,1.51,0,0,1,134.13,85.05Zm-2.54,0c0,.7.41,1.23,1,1.23s1-.53,1-1.25c0-.54-.28-1.22-1-1.22S131.59,84.48,131.59,85.09Z" transform="translate(-17.76 -11.58)"/><path class="cls-3" d="M134.86,84.35c0-.33,0-.6,0-.87h.52l0,.53h0a1.19,1.19,0,0,1,1.06-.6c.44,0,1.13.26,1.13,1.36v1.91H137V84.84c0-.52-.19-1-.74-1a.83.83,0,0,0-.78.6.73.73,0,0,0,0,.27v1.92h-.58Z" transform="translate(-17.76 -11.58)"/><path class="cls-3" d="M138.44,86.08a1.49,1.49,0,0,0,.77.24c.42,0,.62-.22.62-.48s-.16-.43-.59-.59c-.58-.2-.85-.52-.85-.9a1,1,0,0,1,1.1-.94,1.55,1.55,0,0,1,.79.2l-.15.42a1.2,1.2,0,0,0-.65-.18c-.34,0-.53.19-.53.43s.19.38.6.54.84.49.84,1-.43,1-1.19,1a1.84,1.84,0,0,1-.9-.22Z" transform="translate(-17.76 -11.58)"/><path class="cls-3" d="M143.81,85.81q0,.5,0,.87h-.52l0-.52h0a1.23,1.23,0,0,1-1.06.59c-.5,0-1.1-.28-1.1-1.4V83.48h.58v1.77c0,.61.18,1,.71,1a.85.85,0,0,0,.77-.53.94.94,0,0,0,0-.3v-2h.58Z" transform="translate(-17.76 -11.58)"/><path class="cls-3" d="M144.77,82h.58v4.69h-.58Z" transform="translate(-17.76 -11.58)"/><path class="cls-3" d="M147,82.56v.92h.83v.44H147v1.73c0,.4.11.62.44.62a1.22,1.22,0,0,0,.33,0l0,.44a1.57,1.57,0,0,1-.52.08.79.79,0,0,1-.62-.25,1.15,1.15,0,0,1-.23-.83V83.92H146v-.44h.49v-.76Z" transform="translate(-17.76 -11.58)"/><path class="cls-3" d="M150.29,86.68l0-.4h0a1.19,1.19,0,0,1-1,.47.91.91,0,0,1-1-.92c0-.77.69-1.19,1.93-1.19v-.06a.66.66,0,0,0-.73-.74,1.53,1.53,0,0,0-.83.24l-.13-.39a2,2,0,0,1,1.05-.28c1,0,1.21.67,1.21,1.31v1.19a4.53,4.53,0,0,0,.05.77Zm-.09-1.63c-.63,0-1.36.1-1.36.72a.52.52,0,0,0,.55.55.81.81,0,0,0,.78-.53.63.63,0,0,0,0-.19Z" transform="translate(-17.76 -11.58)"/><path class="cls-3" d="M151.7,84.35c0-.33,0-.6,0-.87h.51l0,.53h0a1.19,1.19,0,0,1,1.06-.6c.44,0,1.13.26,1.13,1.36v1.91h-.58V84.84c0-.52-.2-1-.74-1a.82.82,0,0,0-.78.6.73.73,0,0,0,0,.27v1.92h-.58Z" transform="translate(-17.76 -11.58)"/><path class="cls-3" d="M157.64,86.56a2.11,2.11,0,0,1-.92.19,1.53,1.53,0,0,1-1.59-1.64,1.62,1.62,0,0,1,1.71-1.69,2,2,0,0,1,.81.16l-.13.45a1.37,1.37,0,0,0-.68-.15,1.11,1.11,0,0,0-1.13,1.21,1.1,1.1,0,0,0,1.12,1.19,1.55,1.55,0,0,0,.71-.16Z" transform="translate(-17.76 -11.58)"/><path class="cls-3" d="M158.65,83.48l.7,1.89c.07.21.15.46.2.65h0c.06-.19.13-.43.21-.66l.63-1.88H161l-.87,2.28a4.81,4.81,0,0,1-1.1,2,1.7,1.7,0,0,1-.71.38l-.15-.49a1.63,1.63,0,0,0,.51-.28,1.75,1.75,0,0,0,.49-.65.63.63,0,0,0,0-.14.41.41,0,0,0,0-.15l-1.18-3Z" transform="translate(-17.76 -11.58)"/><path class="cls-3" d="M165.75,86.68l-.42-.44a1.8,1.8,0,0,1-1.3.51,1.26,1.26,0,0,1-1.36-1.25,1.46,1.46,0,0,1,.87-1.3v0a1.53,1.53,0,0,1-.37-.93,1.08,1.08,0,0,1,1.13-1.1.93.93,0,0,1,1,.95c0,.47-.27.84-1,1.19v0l1.09,1.24a3.41,3.41,0,0,0,.43-1.3h.52a3.29,3.29,0,0,1-.64,1.64l.74.79Zm-.7-.77c-.26-.29-.76-.83-1.25-1.4a1.1,1.1,0,0,0-.58.91.88.88,0,0,0,.91.9A1.26,1.26,0,0,0,165.05,85.91ZM163.7,83.2a1.27,1.27,0,0,0,.33.8c.45-.26.74-.5.74-.88a.52.52,0,0,0-.51-.57A.58.58,0,0,0,163.7,83.2Z" transform="translate(-17.76 -11.58)"/><path class="cls-3" d="M168.27,86a2,2,0,0,0,1,.29c.59,0,.94-.31.94-.76s-.24-.65-.84-.89-1.18-.63-1.18-1.26a1.29,1.29,0,0,1,1.44-1.21,2.07,2.07,0,0,1,1,.22l-.16.47a1.78,1.78,0,0,0-.85-.21c-.61,0-.84.36-.84.67s.27.62.89.86,1.14.65,1.14,1.3-.51,1.29-1.56,1.29a2.3,2.3,0,0,1-1.14-.29Z" transform="translate(-17.76 -11.58)"/><path class="cls-3" d="M172,85.19a1,1,0,0,0,1.1,1.11,2.13,2.13,0,0,0,.88-.17l.1.42a2.58,2.58,0,0,1-1.06.2,1.48,1.48,0,0,1-1.57-1.62,1.55,1.55,0,0,1,1.5-1.72,1.36,1.36,0,0,1,1.32,1.51c0,.11,0,.21,0,.27Zm1.71-.42a.84.84,0,0,0-.81-1,1,1,0,0,0-.89,1Z" transform="translate(-17.76 -11.58)"/><path class="cls-3" d="M174.93,84.48c0-.38,0-.7,0-1h.51l0,.63h0a1,1,0,0,1,.89-.7l.16,0V84a.62.62,0,0,0-.2,0,.8.8,0,0,0-.77.74,1.18,1.18,0,0,0,0,.27v1.71h-.58Z" transform="translate(-17.76 -11.58)"/><path class="cls-3" d="M177.48,83.48l.63,1.8c.1.29.19.55.26.82h0a7.83,7.83,0,0,1,.27-.82l.62-1.8h.61l-1.26,3.2h-.55l-1.22-3.2Z" transform="translate(-17.76 -11.58)"/><path class="cls-3" d="M181.08,82.58a.36.36,0,1,1-.72,0,.35.35,0,0,1,.36-.36A.35.35,0,0,1,181.08,82.58Zm-.65,4.1v-3.2H181v3.2Z" transform="translate(-17.76 -11.58)"/><path class="cls-3" d="M184.26,86.56a2.15,2.15,0,0,1-.92.19,1.53,1.53,0,0,1-1.6-1.64,1.62,1.62,0,0,1,1.72-1.69,2,2,0,0,1,.81.16l-.13.45a1.37,1.37,0,0,0-.68-.15,1.11,1.11,0,0,0-1.13,1.21,1.09,1.09,0,0,0,1.11,1.19,1.6,1.6,0,0,0,.72-.16Z" transform="translate(-17.76 -11.58)"/><path class="cls-3" d="M185.22,85.19a1,1,0,0,0,1.09,1.11,2.15,2.15,0,0,0,.89-.17l.1.42a2.68,2.68,0,0,1-1.07.2,1.49,1.49,0,0,1-1.57-1.62,1.55,1.55,0,0,1,1.5-1.72,1.35,1.35,0,0,1,1.32,1.51,1.76,1.76,0,0,1,0,.27Zm1.7-.42a.83.83,0,0,0-.8-1,1,1,0,0,0-.9,1Z" transform="translate(-17.76 -11.58)"/><path class="cls-3" d="M188.12,86.08a1.46,1.46,0,0,0,.77.24c.42,0,.62-.22.62-.48s-.17-.43-.6-.59-.84-.52-.84-.9a1,1,0,0,1,1.1-.94,1.58,1.58,0,0,1,.79.2l-.15.42a1.23,1.23,0,0,0-.65-.18c-.35,0-.54.19-.54.43s.19.38.61.54.84.49.84,1-.44,1-1.2,1a1.87,1.87,0,0,1-.9-.22Z" transform="translate(-17.76 -11.58)"/></svg>