<svg width="190" height="66" viewBox="0 0 190 66" fill="#2a186a" xmlns="http://www.w3.org/2000/svg"><g clip-path="url(#clip0_15_66)"><path d="M1.71637 48.8397V49.7161H16.5918V48.8397L13.159 47.9632V33.3881H16.5918L21.7409 45.0498C23.1733 47.9632 25.1737 49.424 27.7503 49.424H34.904V48.5475L32.3274 47.671L27.7503 37.4701C26.8901 35.4291 25.1737 34.2645 22.8852 33.3881C22.025 33.0959 20.8807 32.8038 19.4524 32.8038C21.4569 32.8038 23.4573 32.5116 25.4618 31.6392C27.1782 31.0549 28.6105 29.8904 29.7548 28.7258C30.8991 27.2691 31.4712 25.8124 31.4712 23.4793C31.4712 20.2737 30.3269 17.9406 27.7503 16.1917C25.1737 14.4429 21.1688 13.5664 15.1635 13.5664H1.71637V14.4429L4.86511 15.3193V48.5475L1.71637 48.8397ZM13.159 14.735H15.1635C17.452 14.735 19.4565 15.6115 20.8848 17.0682C22.3131 18.5249 22.8892 20.858 22.8892 23.4793C22.8892 26.1005 22.3171 28.4337 20.8848 29.8904C19.4524 31.3471 17.736 32.2235 15.1635 32.2235H13.159V14.735Z" fill="#2a186a"/><path d="M43.486 36.269C41.7696 36.5571 40.3372 36.8411 38.9089 37.1292C38.6208 37.7013 38.3368 38.2734 38.0487 38.8456C37.4766 40.2779 37.1885 41.4222 37.1885 42.8505C37.1885 44.855 38.0487 46.5714 39.7651 47.7156C41.4815 49.148 43.77 49.7201 46.6307 49.7201C48.9192 49.7201 50.9237 48.8599 52.352 47.4316C52.9241 46.8595 53.4962 45.9992 54.0683 45.1431C54.3564 46.0033 54.6405 46.5754 55.2126 47.1476C56.3569 48.2918 57.7892 49.152 60.0777 49.152H64.6548V48.2918L61.506 47.4316V33.7005C61.506 31.696 60.9339 29.6955 60.0737 27.9792C59.2135 26.2628 57.4971 25.1185 55.7807 24.2583C53.7762 23.3981 51.4877 22.8259 48.9151 22.8259C45.7664 22.8259 43.4779 23.3981 41.7615 24.5423C40.0451 25.6866 39.4729 26.8308 39.4729 28.5472C39.4729 29.6915 39.761 30.5517 40.6172 31.4079C41.1893 31.98 42.3336 32.5521 43.4779 32.5521H44.9102L45.4823 32.264V24.5383L46.0545 24.2502C46.6266 23.9621 47.1987 23.9621 47.7709 23.9621C49.7753 23.9621 51.2036 24.5342 52.0639 25.9666C52.9241 27.3989 53.4962 29.9715 53.4962 33.6923V35.1247C50.3475 35.1247 46.9147 35.6968 43.4819 36.269H43.486ZM53.2122 43.7067C52.9241 44.5669 52.352 45.139 52.0679 45.7111C50.9237 47.1435 49.7794 47.7156 48.6351 47.7156C47.7749 47.7156 46.9187 47.1435 46.3466 46.2833C45.7745 45.423 45.4864 43.9947 45.4864 41.9903C45.4864 40.846 45.7745 39.4136 46.0585 38.2694C46.3466 37.6973 46.3466 37.1251 46.6307 36.837C46.9187 36.837 47.7749 36.837 48.6351 36.5489C50.0675 36.2608 51.4958 36.2608 53.2122 36.2608V43.6985V43.7067Z" fill="#2a186a"/><path d="M78.3859 48.5718C75.8093 48.5718 73.5208 47.1395 71.8044 44.5669C70.9442 43.4227 70.372 41.9903 69.7999 40.562H67.7954V49.144H68.9397C69.2278 48.8559 69.5118 48.8559 70.0839 48.5718C70.6561 48.2878 71.2282 47.7116 71.8003 46.8555C72.3725 47.4276 72.9446 47.7157 73.8048 48.2878C75.5212 49.148 77.2376 49.7202 79.5261 49.7202C87.2519 49.7202 91.2568 47.1435 91.2568 42.2825C91.2568 40.8501 90.9687 39.7059 90.1125 38.8497C89.2523 37.7054 88.3962 36.8452 87.2519 36.2731C86.1076 35.7009 84.6753 34.8407 82.9589 33.9845C80.6704 32.8403 79.238 31.9801 78.0938 31.1239C76.9495 30.2637 76.3774 29.1194 76.3774 27.9751C76.3774 26.8309 76.6655 26.2588 77.2376 25.3985C77.8097 24.8264 78.6699 24.2543 79.5261 24.2543C81.8146 24.2543 83.8191 25.6866 85.5355 28.2592C86.3957 29.4034 86.9679 30.8358 87.54 32.2641H89.5445V23.6821H88.4002L87.256 24.2543C86.3957 24.8264 85.8236 25.3985 85.5396 25.9707C84.9674 25.3985 84.3953 25.1104 83.5351 24.5383C82.1027 23.6781 80.3863 23.106 78.6699 23.106C74.9491 23.106 72.3765 23.6781 70.6601 25.1104C68.9437 26.2547 68.0835 27.9711 68.0835 29.9756C68.0835 31.4079 68.3716 32.8362 69.2278 33.9805C70.088 35.1248 70.9442 35.985 72.0884 36.8411C73.2327 37.6973 74.665 38.2735 76.6655 39.4178C78.6699 40.562 80.3863 41.4222 81.2425 42.2784C82.1027 43.1386 82.6749 43.9948 82.6749 45.1391C82.6749 46.5714 82.3868 47.4276 81.5306 48.2878C80.9585 48.2878 79.8142 48.5759 78.3818 48.5759L78.3859 48.5718Z" fill="#2a186a"/><path d="M130.454 14.8039C129.594 15.3719 128.737 16.5081 128.165 17.9242L119.583 38.9267L108.425 17.9242C107.565 16.504 106.708 15.3679 105.848 14.8039C104.704 13.9518 103.272 13.6677 101.555 13.6677H95.2617V14.5198L98.4105 15.3719V46.8756L94.4056 48.2958V49.1479H104.132V48.2958L100.127 46.8756V20.1965L115.574 49.716H117.007L129.021 20.1965V47.7277L125.873 48.5798V49.432H140.464V48.5798L137.315 47.7277V15.3719L140.464 14.5198V13.6677H135.027C133.022 13.6677 131.306 13.9518 130.45 14.8039H130.454Z" fill="#2a186a"/><path d="M172.507 47.9998L169.359 47.1396V33.4085C169.359 31.404 168.787 29.4036 167.926 27.6872C167.066 25.9708 165.35 24.8265 163.633 23.9663C161.629 23.1061 159.34 22.5339 156.768 22.5339C153.619 22.5339 151.33 23.1061 149.614 24.2503C147.898 25.3946 147.326 26.5388 147.326 28.2552C147.326 29.3995 147.614 30.2597 148.47 31.1159C149.042 31.688 150.186 32.2602 151.33 32.2602H152.763L153.335 31.9721V24.2463L153.907 23.9582C154.479 23.6701 155.051 23.6701 155.623 23.6701C157.628 23.6701 159.056 24.2422 159.916 25.6746C160.777 27.1069 161.349 29.6795 161.349 33.4004V35.1167C158.488 35.1167 155.339 35.6889 151.623 36.261C149.906 36.5491 148.474 36.8331 147.046 37.1212C146.757 37.6934 146.473 38.2655 146.185 38.8376C145.613 40.27 145.325 41.4142 145.325 42.8425C145.325 44.847 146.185 46.5634 147.902 47.7077C149.618 49.14 151.907 49.7122 154.767 49.7122C157.056 49.7122 159.06 48.8519 160.489 47.4236C161.061 46.8515 161.633 45.9913 162.205 45.1351C162.493 45.9953 162.777 46.5675 163.349 47.1396C164.494 48.2839 165.926 49.1441 168.214 49.1441H172.791L172.507 47.9998ZM161.349 43.7068C161.061 44.567 160.489 45.1392 160.205 45.7113C159.06 47.1437 157.916 47.7158 156.772 47.7158C155.912 47.7158 155.055 47.1437 154.483 46.2834C153.911 45.4232 153.623 43.9949 153.623 41.9904C153.623 40.8462 153.911 39.4138 154.195 38.2695C154.483 37.6974 154.483 37.1253 154.767 36.8372C155.055 36.8372 155.912 36.8372 156.772 36.5491C158.204 36.261 159.632 36.261 161.349 36.261V43.6987V43.7068Z" fill="#2a186a"/><path d="M186.811 18.2448C186.811 15.096 185.378 13.6677 182.234 13.6677H175.652V14.5279L178.801 15.3882V47.9996L175.652 48.8598V49.72H189.955V48.8598L186.807 47.9996V18.2448H186.811Z" fill="#2a186a"/><path d="M122.951 56.959H0V61.9174H122.951V56.959Z" fill="#2a186a"/><path d="M190 0.809082H0.0407715V5.75131H190V0.809082Z" fill="#2a186a"/><path d="M142.85 59.5356H137.38C137.405 60.0347 137.526 60.4607 137.741 60.8137C137.956 61.1668 138.245 61.4346 138.598 61.6172C138.951 61.7997 139.336 61.889 139.758 61.889C140.306 61.889 140.764 61.7551 141.142 61.4914C141.515 61.2276 141.762 60.8665 141.884 60.4161H142.777C142.615 61.0613 142.27 61.5847 141.746 61.9905C141.219 62.3962 140.557 62.5991 139.762 62.5991C139.141 62.5991 138.585 62.4611 138.094 62.1812C137.603 61.9012 137.218 61.5076 136.942 60.9963C136.666 60.4851 136.524 59.8886 136.524 59.2028C136.524 58.5171 136.662 57.9206 136.934 57.4053C137.206 56.89 137.591 56.4964 138.082 56.2245C138.573 55.9527 139.133 55.8147 139.762 55.8147C140.391 55.8147 140.939 55.9527 141.409 56.2245C141.88 56.4964 142.241 56.8656 142.497 57.3282C142.753 57.7908 142.878 58.3061 142.878 58.8661C142.878 59.1542 142.87 59.3773 142.854 59.5315L142.85 59.5356ZM141.722 57.592C141.515 57.2471 141.235 56.9833 140.882 56.8088C140.529 56.6343 140.139 56.5451 139.721 56.5451C139.093 56.5451 138.557 56.748 138.115 57.1497C137.672 57.5514 137.425 58.1194 137.38 58.8498H142.014C142.022 58.3588 141.925 57.9409 141.718 57.596L141.722 57.592Z" fill="#2a186a"/><path d="M144.445 57.4174C144.716 56.9062 145.094 56.5126 145.573 56.2367C146.051 55.9607 146.591 55.8187 147.196 55.8187C147.8 55.8187 148.356 55.9648 148.815 56.261C149.273 56.5532 149.598 56.9224 149.793 57.3647V55.9161H150.637V65.622H149.793V61.0612C149.598 61.5035 149.269 61.8728 148.811 62.1649C148.348 62.4571 147.804 62.6072 147.175 62.6072C146.579 62.6072 146.043 62.4652 145.565 62.1852C145.086 61.9052 144.712 61.5076 144.441 60.9922C144.169 60.4769 144.035 59.8804 144.035 59.2069C144.035 58.5333 144.173 57.9368 144.445 57.4256V57.4174ZM149.468 57.811C149.249 57.4093 148.957 57.0969 148.579 56.8818C148.206 56.6668 147.792 56.5572 147.342 56.5572C146.891 56.5572 146.457 56.6627 146.088 56.8697C145.719 57.0807 145.427 57.3809 145.212 57.7826C144.996 58.1843 144.891 58.655 144.891 59.2028C144.891 59.7506 144.996 60.2132 145.212 60.6189C145.427 61.0247 145.715 61.3371 146.088 61.5481C146.457 61.7632 146.875 61.8687 147.342 61.8687C147.808 61.8687 148.206 61.7591 148.579 61.5441C148.953 61.329 149.249 61.0166 149.468 60.6149C149.687 60.2132 149.793 59.7465 149.793 59.215C149.793 58.6834 149.683 58.2168 149.468 57.8151V57.811Z" fill="#2a186a"/><path d="M152.272 62.384C152.154 62.2623 152.097 62.1162 152.097 61.9377C152.097 61.7591 152.154 61.6131 152.272 61.4954C152.389 61.3777 152.536 61.3209 152.71 61.3209C152.885 61.3209 153.023 61.3777 153.14 61.4954C153.258 61.6131 153.315 61.7591 153.315 61.9377C153.315 62.1162 153.258 62.2623 153.14 62.384C153.023 62.5058 152.88 62.5666 152.71 62.5666C152.54 62.5666 152.385 62.5058 152.272 62.384Z" fill="#2a186a"/><path d="M159.994 56.6262H158.46V62.5058H157.616V56.6262H156.699V55.9121H157.616V55.4536C157.616 54.7354 157.798 54.2119 158.164 53.8711C158.529 53.5343 159.121 53.3639 159.945 53.3639V54.0902C159.397 54.0902 159.012 54.1957 158.792 54.4027C158.573 54.6137 158.46 54.9626 158.46 55.4536V55.9121H159.994V56.6262Z" fill="#2a186a"/><path d="M161.308 54.4879C161.187 54.3662 161.126 54.2201 161.126 54.0415C161.126 53.863 161.187 53.7169 161.308 53.6033C161.43 53.4856 161.572 53.4288 161.742 53.4288C161.913 53.4288 162.055 53.4856 162.177 53.6033C162.298 53.721 162.359 53.8671 162.359 54.0415C162.359 54.216 162.298 54.3662 162.177 54.4879C162.055 54.6096 161.913 54.6705 161.742 54.6705C161.572 54.6705 161.43 54.6096 161.308 54.4879ZM162.164 55.9121V62.5018H161.32V55.9121H162.164Z" fill="#2a186a"/><path d="M169.107 56.5248C169.606 57.0117 169.854 57.7178 169.854 58.6429V62.5058H169.022V58.7403C169.022 58.0262 168.843 57.4784 168.486 57.101C168.129 56.7236 167.638 56.5329 167.021 56.5329C166.405 56.5329 165.877 56.7358 165.5 57.1375C165.122 57.5392 164.932 58.1316 164.932 58.9107V62.5058H164.088V55.9162H164.932V57.0401C165.143 56.6384 165.443 56.33 165.837 56.115C166.23 55.8999 166.677 55.7944 167.176 55.7944C167.963 55.7944 168.608 56.0379 169.107 56.5248Z" fill="#2a186a"/><path d="M171.428 62.384C171.31 62.2623 171.254 62.1162 171.254 61.9377C171.254 61.7591 171.31 61.6131 171.428 61.4954C171.546 61.3777 171.692 61.3209 171.866 61.3209C172.041 61.3209 172.179 61.3777 172.296 61.4954C172.414 61.6131 172.471 61.7591 172.471 61.9377C172.471 62.1162 172.414 62.2623 172.296 62.384C172.179 62.5058 172.037 62.5666 171.866 62.5666C171.696 62.5666 171.542 62.5058 171.428 62.384Z" fill="#2a186a"/><path d="M176.378 57.4174C176.65 56.9062 177.032 56.5126 177.515 56.2367C177.997 55.9607 178.549 55.8187 179.17 55.8187C179.982 55.8187 180.651 56.0216 181.179 56.4233C181.706 56.825 182.047 57.3728 182.197 58.0667H181.292C181.179 57.5919 180.935 57.2186 180.562 56.9508C180.189 56.683 179.722 56.545 179.166 56.545C178.724 56.545 178.326 56.6465 177.969 56.8453C177.616 57.0482 177.336 57.3485 177.129 57.7461C176.922 58.1438 176.821 58.6347 176.821 59.2109C176.821 59.7871 176.922 60.2821 177.129 60.6839C177.336 61.0856 177.612 61.3858 177.969 61.5887C178.322 61.7875 178.72 61.889 179.166 61.889C179.722 61.889 180.185 61.7551 180.562 61.4832C180.939 61.2114 181.179 60.838 181.292 60.3552H182.197C182.043 61.0328 181.702 61.5725 181.171 61.9864C180.639 62.4003 179.969 62.6031 179.166 62.6031C178.545 62.6031 177.993 62.4652 177.511 62.1852C177.028 61.9052 176.65 61.5116 176.374 61.0004C176.103 60.4891 175.965 59.8926 175.965 59.2069C175.965 58.5211 176.103 57.9246 176.374 57.4134L176.378 57.4174Z" fill="#2a186a"/><path d="M184.969 62.1852C184.473 61.9052 184.084 61.5117 183.796 61.0004C183.512 60.4891 183.366 59.8926 183.366 59.2069C183.366 58.5212 183.512 57.9247 183.8 57.4134C184.088 56.9022 184.486 56.5086 184.981 56.2326C185.48 55.9567 186.04 55.8147 186.656 55.8147C187.273 55.8147 187.837 55.9527 188.34 56.2326C188.844 56.5126 189.237 56.9062 189.521 57.4134C189.805 57.9247 189.951 58.5212 189.951 59.2069C189.951 59.8926 189.805 60.477 189.517 60.9923C189.229 61.5076 188.827 61.9052 188.324 62.1812C187.817 62.4571 187.253 62.5991 186.632 62.5991C186.011 62.5991 185.455 62.4611 184.96 62.1812L184.969 62.1852ZM187.845 61.5685C188.215 61.3696 188.515 61.0734 188.746 60.6758C188.977 60.2781 189.091 59.7871 189.091 59.211C189.091 58.6348 188.977 58.1438 188.754 57.7461C188.527 57.3485 188.231 57.0523 187.862 56.8535C187.492 56.6587 187.091 56.5573 186.656 56.5573C186.222 56.5573 185.821 56.6546 185.451 56.8535C185.082 57.0523 184.786 57.3485 184.563 57.7461C184.34 58.1438 184.23 58.6348 184.23 59.211C184.23 59.7871 184.34 60.2781 184.563 61.5685C184.782 61.0734 185.078 61.3696 185.443 61.5685C185.808 61.7673 186.21 61.8647 186.644 61.8647C187.078 61.8647 187.48 61.7673 187.849 61.5685H187.845Z" fill="#2a186a"/></g><defs><clipPath id="clip0_15_66"><rect width="190" height="64.809" fill="#2a186a"/></clipPath></defs></svg>
