<?xml version="1.0" encoding="UTF-8"?>
<svg id="Layer_1" data-name="Layer 1" xmlns="http://www.w3.org/2000/svg" viewBox="0 0 1080 187.69">
  <defs>
    <style>
      .cls-1 {
        fill: #8bbeb2;
      }

      .cls-2 {
        fill: #18314f;
      }
    </style>
  </defs>
  <path class="cls-2" d="M1041.49,161.09c23.44,0,38.51-12.28,38.51-30.88,0-22.88-22.51-25.3-34.79-26.97-9.86-1.3-18.23-2.42-18.23-9.49,0-5.39,4.84-10.04,14.51-10.04,8.74,0,13.95,3.91,14.51,9.49h21.95c-.56-16.18-14.32-28.83-36.83-28.83s-36.46,12.28-36.46,31.06c0,22.51,20.83,24.93,34.97,26.79,9.86,1.3,18.04,2.23,18.04,9.3,0,5.58-4.84,10.23-16.18,10.23s-16.18-4.09-16.37-10.23h-22.32c.56,17.11,15.25,29.58,38.69,29.58ZM953.13,161.09c23.44,0,38.51-12.28,38.51-30.88,0-22.88-22.51-25.3-34.79-26.97-9.86-1.3-18.23-2.42-18.23-9.49,0-5.39,4.84-10.04,14.51-10.04,8.74,0,13.95,3.91,14.51,9.49h21.95c-.56-16.18-14.32-28.83-36.83-28.83s-36.46,12.28-36.46,31.06c0,22.51,20.83,24.93,34.97,26.79,9.86,1.3,18.05,2.23,18.05,9.3,0,5.58-4.84,10.23-16.18,10.23s-16.18-4.09-16.37-10.23h-22.32c.56,17.11,15.25,29.58,38.69,29.58ZM828.68,102.87c3.53-12.09,13.21-18.42,25.67-18.42s22.14,6.14,25.67,18.42h-51.34ZM854.35,161.09c21.76,0,38.51-11.35,45.39-28.83h-23.62c-4.65,5.95-11.9,8.74-21.76,8.74-13.02,0-23.25-7.07-26.23-20.46h75.34v-7.81c0-27.9-20.09-48.36-49.11-48.36s-49.48,20.46-49.48,48.36,20.46,48.36,49.48,48.36ZM765.06,158.67h22.14V26.6h-22.14v132.07ZM603.04,158.67h22.14v-52.46c0-15.07,7.81-21.21,18.6-21.21s18.6,6.32,18.6,21.21v52.46h22.14v-52.46c0-14.88,7.81-21.21,18.41-21.21s18.6,6.14,18.6,21.21v52.46h22.14v-52.46c0-28.83-16.74-41.85-38.51-41.85-13.95,0-25.3,5.77-31.81,16.56-6.69-10.79-18.04-16.56-31.81-16.56-21.77,0-38.51,13.02-38.51,41.85v52.46ZM510.89,102.87c3.53-12.09,13.2-18.42,25.67-18.42s22.14,6.14,25.67,18.42h-51.34ZM536.56,161.09c21.77,0,38.51-11.35,45.39-28.83h-23.62c-4.65,5.95-11.9,8.74-21.77,8.74-13.02,0-23.25-7.07-26.23-20.46h75.34v-7.81c0-27.9-20.09-48.36-49.11-48.36s-49.48,20.46-49.48,48.36,20.46,48.36,49.48,48.36ZM433.38,161.09c22.32,0,37.58-12.28,37.58-37.76v-2.42h-22.14v2.42c0,12.46-6.32,17.11-15.44,17.11s-15.44-4.84-15.44-17.11v-36.46h47.43v-20.09h-47.43v-32.55h-22.14v89.1c0,25.48,15.25,37.76,37.57,37.76ZM342.61,161.09c23.44,0,38.51-12.28,38.51-30.88,0-22.88-22.51-25.3-34.79-26.97-9.86-1.3-18.23-2.42-18.23-9.49,0-5.39,4.84-10.04,14.51-10.04,8.74,0,13.95,3.91,14.51,9.49h21.95c-.56-16.18-14.32-28.83-36.83-28.83s-36.46,12.28-36.46,31.06c0,22.51,20.83,24.93,34.97,26.79,9.86,1.3,18.05,2.23,18.05,9.3,0,5.58-4.84,10.23-16.18,10.23s-16.18-4.09-16.37-10.23h-22.32c.56,17.11,15.25,29.58,38.69,29.58Z"/>
  <g>
    <path class="cls-2" d="M145.05,121.46h9.03V9.53c0-2.52-1.07-4.94-2.92-6.65l-.54-.5c-1.88-1.73-4.35-2.57-6.89-2.35-33.97,2.92-60.55,31.44-60.56,66.2v111.94c0,2.51,1.07,4.95,2.92,6.65l.53.48c1.85,1.7,4.37,2.56,6.88,2.35,33.98-2.91,60.57-31.44,60.58-66.2h-18.07c.01,25.34-19.42,46.1-44.05,48.2l.77,9,6.11-6.65-.53-.48-6.11,6.65h9.03v-111.94c-.01-25.33,19.41-46.09,44.04-48.2l-.77-9-6.12,6.65.54.5,6.12-6.65h-9.03v111.93h9.03Z"/>
    <path class="cls-2" d="M51.06,72.34v-9.03H18.42c-4.97,0-9.58,1.97-12.92,5.21C2.15,71.73,0,76.37,0,81.43v39.87c.04,34.18,26.24,62.09,59.82,66.32,2.53.32,5.06-.44,7-2.09l.92-.79c2.01-1.72,3.17-4.23,3.17-6.87v-95.04c0-5.45-2.31-10.43-5.92-13.9-3.59-3.49-8.56-5.62-13.93-5.61v18.07l1.36.52.42.92v95.04h9.03l-5.86-6.87-.92.79,5.86,6.87,1.13-8.96c-25.01-3.19-44.06-23.8-44.02-48.39v-39.87h-.2l.18.08.02-.08h-.2l.18.08.07-.05.3-.08h32.64v-9.03Z"/>
    <path class="cls-1" d="M35.45,40h0c-6.05-.01-10.95-4.91-10.97-10.96.01-6.05,4.91-10.95,10.97-10.96,6.05.01,10.95,4.91,10.96,10.96-.01,6.05-4.91,10.95-10.96,10.96M35.45,0C19.42,0,6.43,12.99,6.42,29.03c0,16.04,12.99,29.03,29.03,29.03h0c16.04,0,29.03-12.99,29.03-29.03C64.48,12.99,51.49,0,35.45,0"/>
    <path class="cls-2" d="M186.2,115.35v9.03h32.64c4.97,0,9.58-1.97,12.92-5.21,3.34-3.22,5.5-7.85,5.5-12.91v-39.87c-.04-34.18-26.24-62.09-59.82-66.32-2.53-.32-5.06.43-7,2.09l-.92.79c-2.01,1.72-3.17,4.23-3.17,6.87v95.04c0,5.45,2.32,10.43,5.92,13.9,3.59,3.49,8.56,5.62,13.94,5.61v-18.07l-1.37-.52-.42-.92V9.83h-9.03l5.86,6.87.92-.79-5.86-6.87-1.14,8.96c25.01,3.19,44.06,23.8,44.02,48.39v39.87h.2l-.18-.08-.02.08h.2l-.18-.08-.07.05-.3.08h-32.64v9.03Z"/>
    <path class="cls-1" d="M201.8,138.66v9.03c6.05.01,10.95,4.91,10.96,10.96-.01,6.05-4.91,10.95-10.96,10.96-6.05-.01-10.95-4.91-10.97-10.96.01-6.05,4.91-10.95,10.97-10.96v-18.07c-16.04,0-29.03,12.99-29.03,29.03,0,16.04,12.99,29.03,29.03,29.03,16.04,0,29.03-12.99,29.03-29.03,0-16.04-12.99-29.03-29.03-29.03v9.03Z"/>
  </g>
</svg>