<?xml version="1.0" encoding="UTF-8"?><svg id="Layer_2" xmlns="http://www.w3.org/2000/svg" viewBox="0 0 193.61 41.53"><defs><style>.cls-1{fill:#2a186a;}</style></defs><g id="Layer_1-2"><path class="cls-1" d="m52.08,24.13h6.88c.05,1.21.93,1.81,2.84,1.81,2.14,0,2.84-.74,2.84-1.72,0-1.53-1.67-1.67-3.81-2-3.16-.46-8.37-1.26-8.37-6.79,0-4.65,3.67-7.91,9.39-7.91s9.25,3.3,9.39,7.44h-6.79c-.19-1.07-1.12-1.67-2.51-1.67-1.72,0-2.42.88-2.42,1.81,0,1.4,1.67,1.58,3.81,1.91,3.3.47,8.37,1.35,8.37,6.79,0,4.74-3.91,7.91-9.81,7.91s-9.72-3.16-9.81-7.58h0Z"/><path class="cls-1" d="m74.41,22.04V0h6.98v8.14h10.88v6.28h-10.88v7.63c0,2.42,1.12,3.16,2.65,3.16s2.65-.74,2.65-3.16v-.7h6.98v.7c0,6.56-3.91,9.67-9.63,9.67s-9.63-3.12-9.63-9.67h0Z"/><path class="cls-1" d="m96.08,18.04c0-7.16,4.19-10.51,10.32-10.51s10.28,3.3,10.32,10.56v.14h-6.98v-.19c0-3.07-1.4-4-3.35-4s-3.35.93-3.35,4v13.07h-6.98v-13.07h.02Z"/><path class="cls-1" d="m118.83,33.34h6.98c.7,1.53,1.91,2.14,4.14,2.14,3.07,0,4.42-1.44,4.42-4.93v-2.28c-1.3,2-3.3,3.07-5.72,3.07-4.84,0-10-3.26-10-11.67v-11.53h6.98v11.53c0,3.63,1.77,5.16,4.37,5.16s4.37-1.63,4.37-5.16v-11.53h6.98v22.18c0,8-5.12,11.21-11.39,11.21-5.44,0-9.95-2.51-11.12-8.19h0Z"/><path class="cls-1" d="m144.08,8.13h7.49l5.07,16.32,5.07-16.32h7.3l-8.23,22.97h-8.46l-8.23-22.97h-.01Z"/><path class="cls-1" d="m169.01,19.62c0-6.98,5.12-12.09,12.37-12.09s12.23,5.12,12.23,12.09v1.95h-17.35c.56,2.7,2.6,3.91,5.12,3.91,2,0,3.49-.42,4.37-1.67h7.21c-1.49,4.74-5.86,7.91-11.58,7.91-7.25,0-12.37-5.12-12.37-12.09h0Zm17.44-2.46c-.79-2.37-2.65-3.39-5.07-3.39s-4.28,1.07-4.98,3.39h10.05Z"/><path class="cls-1" d="m10.79,36.98h13c6.04,0,10.93-4.89,10.93-10.93V4.79c-5.26,2.58-8.33,6.34-11.25,14.95-3.24,9.57-7.33,14.19-12.69,17.24h0Z"/><path class="cls-1" d="m31.37,2.26H10.93C4.89,2.26,0,7.15,0,13.19v15.56c7.6-1.44,11.17-5.31,15.47-12.01,5.78-8.99,8.27-11.52,15.89-14.48h0Z"/></g></svg>